<mxfile host="app.diagrams.net" modified="2022-07-14T10:58:50.076Z" agent="5.0 (Windows)" etag="ymPYJxwBAuoNVFH18Ibd" version="20.0.4" type="github">
  <diagram name="Page-1" id="c7488fd3-1785-93aa-aadb-54a6760d102a">
    <mxGraphModel dx="1422" dy="819" grid="1" gridSize="10" guides="1" tooltips="1" connect="1" arrows="1" fold="1" page="1" pageScale="1" pageWidth="1100" pageHeight="850" background="none" math="0" shadow="0">
      <root>
        <mxCell id="0" />
        <mxCell id="1" parent="0" />
        <mxCell id="2b4e8129b02d487f-1" value="Flow chart" style="swimlane;html=1;childLayout=stackLayout;horizontal=1;startSize=20;horizontalStack=0;rounded=0;shadow=0;labelBackgroundColor=none;strokeWidth=1;fontFamily=Verdana;fontSize=8;align=center;" parent="1" vertex="1">
          <mxGeometry x="180" y="50" width="690" height="460" as="geometry" />
        </mxCell>
        <mxCell id="2b4e8129b02d487f-2" value="XML" style="swimlane;html=1;startSize=20;horizontal=0;" parent="2b4e8129b02d487f-1" vertex="1">
          <mxGeometry y="20" width="690" height="150" as="geometry" />
        </mxCell>
        <mxCell id="7Uj3xXDy2HpvAI1R48hJ-5" value="" style="edgeStyle=orthogonalEdgeStyle;rounded=0;orthogonalLoop=1;jettySize=auto;html=1;entryX=0.5;entryY=0;entryDx=0;entryDy=0;" parent="2b4e8129b02d487f-2" source="2b4e8129b02d487f-6" target="7Uj3xXDy2HpvAI1R48hJ-2" edge="1">
          <mxGeometry relative="1" as="geometry">
            <mxPoint x="130" y="80" as="targetPoint" />
            <Array as="points">
              <mxPoint x="135" y="38" />
            </Array>
          </mxGeometry>
        </mxCell>
        <mxCell id="2b4e8129b02d487f-6" value="IP INPUT" style="rounded=1;whiteSpace=wrap;html=1;shadow=0;labelBackgroundColor=none;strokeWidth=1;fontFamily=Verdana;fontSize=8;align=center;" parent="2b4e8129b02d487f-2" vertex="1">
          <mxGeometry x="35" y="19.49999999999997" width="70" height="37" as="geometry" />
        </mxCell>
        <mxCell id="2b4e8129b02d487f-7" value="TOAST(error)" style="rounded=1;whiteSpace=wrap;html=1;shadow=0;labelBackgroundColor=none;strokeWidth=1;fontFamily=Verdana;fontSize=8;align=center;" parent="2b4e8129b02d487f-2" vertex="1">
          <mxGeometry x="190" y="60" width="80" height="30" as="geometry" />
        </mxCell>
        <mxCell id="2b4e8129b02d487f-22" style="edgeStyle=orthogonalEdgeStyle;rounded=0;html=1;entryX=0.5;entryY=0;labelBackgroundColor=none;startArrow=none;startFill=0;startSize=5;endArrow=classicThin;endFill=1;endSize=5;jettySize=auto;orthogonalLoop=1;strokeWidth=1;fontFamily=Verdana;fontSize=8;entryDx=0;entryDy=0;" parent="2b4e8129b02d487f-2" source="2b4e8129b02d487f-9" target="7Uj3xXDy2HpvAI1R48hJ-13" edge="1">
          <mxGeometry relative="1" as="geometry">
            <mxPoint x="550" y="75" as="targetPoint" />
          </mxGeometry>
        </mxCell>
        <mxCell id="2b4e8129b02d487f-9" value="Time Input" style="rounded=1;whiteSpace=wrap;html=1;shadow=0;labelBackgroundColor=none;strokeWidth=1;fontFamily=Verdana;fontSize=8;align=center;" parent="2b4e8129b02d487f-2" vertex="1">
          <mxGeometry x="310" y="19.49999999999997" width="70" height="37" as="geometry" />
        </mxCell>
        <mxCell id="7Uj3xXDy2HpvAI1R48hJ-1" value="&lt;div&gt;OnClick&lt;/div&gt;&lt;div&gt;Listener&lt;br&gt;&lt;/div&gt;" style="ellipse;whiteSpace=wrap;html=1;" parent="2b4e8129b02d487f-2" vertex="1">
          <mxGeometry x="40" y="90" width="60" height="40.25" as="geometry" />
        </mxCell>
        <mxCell id="7Uj3xXDy2HpvAI1R48hJ-2" value="Submit" style="rounded=0;whiteSpace=wrap;html=1;" parent="2b4e8129b02d487f-2" vertex="1">
          <mxGeometry x="110" y="90" width="50" height="43" as="geometry" />
        </mxCell>
        <mxCell id="7Uj3xXDy2HpvAI1R48hJ-12" value="&lt;div&gt;OnClick&lt;/div&gt;&lt;div&gt;Listener&lt;br&gt;&lt;/div&gt;" style="ellipse;whiteSpace=wrap;html=1;" parent="2b4e8129b02d487f-2" vertex="1">
          <mxGeometry x="350" y="81.38" width="60" height="40.25" as="geometry" />
        </mxCell>
        <mxCell id="7Uj3xXDy2HpvAI1R48hJ-13" value="Submit" style="rounded=0;whiteSpace=wrap;html=1;" parent="2b4e8129b02d487f-2" vertex="1">
          <mxGeometry x="420" y="80" width="50" height="43" as="geometry" />
        </mxCell>
        <mxCell id="7Uj3xXDy2HpvAI1R48hJ-27" value="TOAST(Message)" style="rounded=1;whiteSpace=wrap;html=1;shadow=0;labelBackgroundColor=none;strokeWidth=1;fontFamily=Verdana;fontSize=8;align=center;" parent="2b4e8129b02d487f-2" vertex="1">
          <mxGeometry x="540" y="60" width="80" height="30" as="geometry" />
        </mxCell>
        <mxCell id="2b4e8129b02d487f-3" value="&lt;div&gt;JAVA&lt;/div&gt;" style="swimlane;html=1;startSize=20;horizontal=0;" parent="2b4e8129b02d487f-1" vertex="1">
          <mxGeometry y="170" width="690" height="150" as="geometry" />
        </mxCell>
        <mxCell id="2b4e8129b02d487f-26" style="edgeStyle=orthogonalEdgeStyle;rounded=0;html=1;labelBackgroundColor=none;startArrow=none;startFill=0;startSize=5;endArrow=classicThin;endFill=1;endSize=5;jettySize=auto;orthogonalLoop=1;strokeWidth=1;fontFamily=Verdana;fontSize=8" parent="2b4e8129b02d487f-3" source="2b4e8129b02d487f-12" target="2b4e8129b02d487f-13" edge="1">
          <mxGeometry relative="1" as="geometry" />
        </mxCell>
        <mxCell id="2b4e8129b02d487f-12" value="&lt;font style=&quot;font-size: 10px;&quot;&gt;CHECK IP &lt;/font&gt;" style="rounded=1;whiteSpace=wrap;html=1;shadow=0;labelBackgroundColor=none;strokeWidth=1;fontFamily=Verdana;fontSize=8;align=center;" parent="2b4e8129b02d487f-3" vertex="1">
          <mxGeometry x="40" y="49.99999999999996" width="70" height="37" as="geometry" />
        </mxCell>
        <mxCell id="2b4e8129b02d487f-13" value="Valid" style="strokeWidth=1;html=1;shape=mxgraph.flowchart.decision;whiteSpace=wrap;rounded=1;shadow=0;labelBackgroundColor=none;fontFamily=Verdana;fontSize=8;align=center;" parent="2b4e8129b02d487f-3" vertex="1">
          <mxGeometry x="130" y="53.499999999999915" width="30" height="30" as="geometry" />
        </mxCell>
        <mxCell id="7Uj3xXDy2HpvAI1R48hJ-10" value="&lt;div style=&quot;font-size: 11px;&quot;&gt;&lt;font style=&quot;font-size: 11px;&quot;&gt;Accept packet&lt;/font&gt;&lt;/div&gt;&lt;div style=&quot;font-size: 11px;&quot;&gt;&lt;font style=&quot;font-size: 11px;&quot;&gt;&amp;amp; Enable button, text field&lt;br&gt;&lt;/font&gt;&lt;/div&gt;" style="rounded=0;whiteSpace=wrap;html=1;" parent="2b4e8129b02d487f-3" vertex="1">
          <mxGeometry x="250" y="28.5" width="80" height="80" as="geometry" />
        </mxCell>
        <mxCell id="7Uj3xXDy2HpvAI1R48hJ-14" value="&lt;font style=&quot;font-size: 10px;&quot;&gt;Check Time&lt;/font&gt;" style="rounded=1;whiteSpace=wrap;html=1;shadow=0;labelBackgroundColor=none;strokeWidth=1;fontFamily=Verdana;fontSize=8;align=center;" parent="2b4e8129b02d487f-3" vertex="1">
          <mxGeometry x="370" y="41.49999999999994" width="70" height="37" as="geometry" />
        </mxCell>
        <mxCell id="7Uj3xXDy2HpvAI1R48hJ-25" value="Accept packet and Display necessary toast" style="rounded=0;whiteSpace=wrap;html=1;fontSize=10;" parent="2b4e8129b02d487f-3" vertex="1">
          <mxGeometry x="497.5" y="41.5" width="120" height="60" as="geometry" />
        </mxCell>
        <mxCell id="2b4e8129b02d487f-25" value="No" style="edgeStyle=orthogonalEdgeStyle;rounded=0;html=1;labelBackgroundColor=none;startArrow=none;startFill=0;startSize=5;endArrow=classicThin;endFill=1;endSize=5;jettySize=auto;orthogonalLoop=1;strokeWidth=1;fontFamily=Verdana;fontSize=8" parent="2b4e8129b02d487f-1" source="2b4e8129b02d487f-13" target="2b4e8129b02d487f-7" edge="1">
          <mxGeometry x="-0.8261" y="9" relative="1" as="geometry">
            <mxPoint y="1" as="offset" />
          </mxGeometry>
        </mxCell>
        <mxCell id="2b4e8129b02d487f-27" value="Yes" style="edgeStyle=orthogonalEdgeStyle;rounded=0;html=1;labelBackgroundColor=none;startArrow=none;startFill=0;startSize=5;endArrow=classicThin;endFill=1;endSize=5;jettySize=auto;orthogonalLoop=1;strokeWidth=1;fontFamily=Verdana;fontSize=8" parent="2b4e8129b02d487f-1" source="2b4e8129b02d487f-13" target="2b4e8129b02d487f-14" edge="1">
          <mxGeometry x="-0.8947" y="15" relative="1" as="geometry">
            <mxPoint as="offset" />
            <Array as="points">
              <mxPoint x="145" y="290" />
              <mxPoint x="95" y="290" />
            </Array>
          </mxGeometry>
        </mxCell>
        <mxCell id="7Uj3xXDy2HpvAI1R48hJ-7" style="edgeStyle=orthogonalEdgeStyle;rounded=0;orthogonalLoop=1;jettySize=auto;html=1;exitX=0.5;exitY=1;exitDx=0;exitDy=0;entryX=0.5;entryY=0;entryDx=0;entryDy=0;" parent="2b4e8129b02d487f-1" source="7Uj3xXDy2HpvAI1R48hJ-2" target="2b4e8129b02d487f-12" edge="1">
          <mxGeometry relative="1" as="geometry" />
        </mxCell>
        <mxCell id="7Uj3xXDy2HpvAI1R48hJ-15" style="edgeStyle=orthogonalEdgeStyle;rounded=0;orthogonalLoop=1;jettySize=auto;html=1;exitX=0.5;exitY=1;exitDx=0;exitDy=0;entryX=0.5;entryY=0;entryDx=0;entryDy=0;" parent="2b4e8129b02d487f-1" source="7Uj3xXDy2HpvAI1R48hJ-13" target="7Uj3xXDy2HpvAI1R48hJ-14" edge="1">
          <mxGeometry relative="1" as="geometry" />
        </mxCell>
        <mxCell id="7Uj3xXDy2HpvAI1R48hJ-16" style="edgeStyle=orthogonalEdgeStyle;rounded=0;orthogonalLoop=1;jettySize=auto;html=1;exitX=0.5;exitY=1;exitDx=0;exitDy=0;entryX=0;entryY=0.5;entryDx=0;entryDy=0;" parent="2b4e8129b02d487f-1" source="7Uj3xXDy2HpvAI1R48hJ-14" target="7Uj3xXDy2HpvAI1R48hJ-17" edge="1">
          <mxGeometry relative="1" as="geometry">
            <mxPoint x="410" y="390" as="targetPoint" />
          </mxGeometry>
        </mxCell>
        <mxCell id="7Uj3xXDy2HpvAI1R48hJ-23" style="edgeStyle=orthogonalEdgeStyle;rounded=0;orthogonalLoop=1;jettySize=auto;html=1;fontSize=10;" parent="2b4e8129b02d487f-1" source="7Uj3xXDy2HpvAI1R48hJ-11" target="7Uj3xXDy2HpvAI1R48hJ-10" edge="1">
          <mxGeometry relative="1" as="geometry" />
        </mxCell>
        <mxCell id="7Uj3xXDy2HpvAI1R48hJ-24" style="edgeStyle=orthogonalEdgeStyle;rounded=0;orthogonalLoop=1;jettySize=auto;html=1;fontSize=10;" parent="2b4e8129b02d487f-1" source="7Uj3xXDy2HpvAI1R48hJ-20" target="7Uj3xXDy2HpvAI1R48hJ-25" edge="1">
          <mxGeometry relative="1" as="geometry">
            <mxPoint x="557.5" y="250" as="targetPoint" />
          </mxGeometry>
        </mxCell>
        <mxCell id="7Uj3xXDy2HpvAI1R48hJ-26" style="edgeStyle=orthogonalEdgeStyle;rounded=0;orthogonalLoop=1;jettySize=auto;html=1;fontSize=10;entryX=0.5;entryY=1;entryDx=0;entryDy=0;" parent="2b4e8129b02d487f-1" source="7Uj3xXDy2HpvAI1R48hJ-25" target="7Uj3xXDy2HpvAI1R48hJ-27" edge="1">
          <mxGeometry relative="1" as="geometry">
            <mxPoint x="570" y="140" as="targetPoint" />
          </mxGeometry>
        </mxCell>
        <mxCell id="2b4e8129b02d487f-4" value="Windows" style="swimlane;html=1;startSize=20;horizontal=0;" parent="2b4e8129b02d487f-1" vertex="1">
          <mxGeometry y="320" width="690" height="140" as="geometry" />
        </mxCell>
        <mxCell id="2b4e8129b02d487f-28" style="edgeStyle=orthogonalEdgeStyle;rounded=0;html=1;labelBackgroundColor=none;startArrow=none;startFill=0;startSize=5;endArrow=classicThin;endFill=1;endSize=5;jettySize=auto;orthogonalLoop=1;strokeWidth=1;fontFamily=Verdana;fontSize=8;entryX=0;entryY=0.5;entryDx=0;entryDy=0;" parent="2b4e8129b02d487f-4" source="2b4e8129b02d487f-14" target="7Uj3xXDy2HpvAI1R48hJ-11" edge="1">
          <mxGeometry relative="1" as="geometry">
            <mxPoint x="180" y="43.5" as="targetPoint" />
          </mxGeometry>
        </mxCell>
        <mxCell id="2b4e8129b02d487f-14" value="&lt;font style=&quot;font-size: 10px;&quot;&gt;Receive Packet&lt;/font&gt;" style="rounded=1;whiteSpace=wrap;html=1;shadow=0;labelBackgroundColor=none;strokeWidth=1;fontFamily=Verdana;fontSize=8;align=center;" parent="2b4e8129b02d487f-4" vertex="1">
          <mxGeometry x="60" y="23.50000000000003" width="70" height="37" as="geometry" />
        </mxCell>
        <mxCell id="7Uj3xXDy2HpvAI1R48hJ-11" value="Send Ack packet" style="rounded=0;whiteSpace=wrap;html=1;" parent="2b4e8129b02d487f-4" vertex="1">
          <mxGeometry x="255" y="23.5" width="70" height="36" as="geometry" />
        </mxCell>
        <mxCell id="7Uj3xXDy2HpvAI1R48hJ-19" value="" style="edgeStyle=orthogonalEdgeStyle;rounded=0;orthogonalLoop=1;jettySize=auto;html=1;fontSize=10;" parent="2b4e8129b02d487f-4" source="7Uj3xXDy2HpvAI1R48hJ-17" target="7Uj3xXDy2HpvAI1R48hJ-18" edge="1">
          <mxGeometry relative="1" as="geometry" />
        </mxCell>
        <mxCell id="7Uj3xXDy2HpvAI1R48hJ-21" value="" style="edgeStyle=orthogonalEdgeStyle;rounded=0;orthogonalLoop=1;jettySize=auto;html=1;fontSize=10;" parent="2b4e8129b02d487f-4" source="7Uj3xXDy2HpvAI1R48hJ-17" target="7Uj3xXDy2HpvAI1R48hJ-20" edge="1">
          <mxGeometry relative="1" as="geometry" />
        </mxCell>
        <mxCell id="7Uj3xXDy2HpvAI1R48hJ-17" value="&lt;font style=&quot;font-size: 11px;&quot;&gt;Receive packet,&lt;/font&gt;" style="rounded=0;whiteSpace=wrap;html=1;" parent="2b4e8129b02d487f-4" vertex="1">
          <mxGeometry x="370" y="24" width="90" height="36.5" as="geometry" />
        </mxCell>
        <mxCell id="7Uj3xXDy2HpvAI1R48hJ-18" value="Validate and shutdown" style="shape=process;whiteSpace=wrap;html=1;backgroundOutline=1;rounded=0;" parent="2b4e8129b02d487f-4" vertex="1">
          <mxGeometry x="356.25" y="94" width="117.5" height="36" as="geometry" />
        </mxCell>
        <mxCell id="7Uj3xXDy2HpvAI1R48hJ-20" value="&lt;div&gt;Send Ack&lt;/div&gt;&lt;div&gt;packet&lt;br&gt;&lt;/div&gt;" style="whiteSpace=wrap;html=1;rounded=0;" parent="2b4e8129b02d487f-4" vertex="1">
          <mxGeometry x="525" y="18.38" width="65" height="47.75" as="geometry" />
        </mxCell>
      </root>
    </mxGraphModel>
  </diagram>
</mxfile>
